<?xml version="1.0" encoding="iso-8859-1"?>
<!-- Generator: Adobe Illustrator 19.0.0, SVG Export Plug-In . SVG Version: 6.00 Build 0)  -->
<svg version="1.1" id="Layer_1" xmlns="http://www.w3.org/2000/svg" xmlns:xlink="http://www.w3.org/1999/xlink" x="0px" y="0px"
	 viewBox="0 0 150 150" style="enable-background:new 0 0 150 150;" xml:space="preserve">
<g id="XMLID_219_">
	<g id="XMLID_194_">
		
			<rect id="XMLID_701_" x="16.869" y="43.458" transform="matrix(0.423 0.9061 -0.9061 0.423 59.1824 14.9295)" style="fill:#2887C2;" width="1.999" height="20.957"/>
	</g>
	<g id="XMLID_103_">
		<g id="XMLID_446_">
			
				<rect id="XMLID_700_" x="51.867" y="36.082" transform="matrix(0.4238 0.9057 -0.9057 0.4238 64.5003 -26.23)" style="fill:#DAE6E8;" width="2" height="3"/>
		</g>
		<g id="XMLID_445_">
			
				<rect id="XMLID_699_" x="43.263" y="38.937" transform="matrix(0.4238 0.9057 -0.9057 0.4238 63.1844 -16.121)" style="fill:#DAE6E8;" width="2" height="5.33"/>
		</g>
		<g id="XMLID_388_">
			
				<rect id="XMLID_698_" x="34.66" y="44.122" transform="matrix(0.4238 0.9057 -0.9057 0.4238 61.8686 -6.012)" style="fill:#DAE6E8;" width="2" height="3"/>
		</g>
	</g>
	<g id="XMLID_191_">
		
			<rect id="XMLID_697_" x="68.617" y="58.693" transform="matrix(0.4278 0.9039 -0.9039 0.4278 101.7196 -41.2951)" style="fill:#DAE6E8;" width="29.717" height="2.001"/>
	</g>
	<g id="XMLID_185_">
		<path id="XMLID_696_" style="fill:#0A486A;" d="M85.64,102.77l-1.625-1.166l4.652-6.487c0.213-0.296,0.493-0.545,0.812-0.721
			l4.083-2.255c0.042-0.023,0.079-0.052,0.113-0.087l2.931-3.09c0.128-0.135,0.163-0.333,0.088-0.505l-0.088-0.203
			c-0.226-0.519-0.267-1.102-0.116-1.644l0.352-1.264c0.038-0.137,0.01-0.287-0.076-0.402l-0.289-0.386
			c-0.527-0.702-0.64-1.641-0.292-2.449l0.437-1.019c0.086-0.2,0.023-0.429-0.151-0.558l-0.463-0.34
			c-0.913-0.671-1.25-1.872-0.82-2.919l1.458-3.563c0.08-0.195,0.019-0.419-0.149-0.546l-1.417-1.071
			c-0.099-0.075-0.22-0.106-0.343-0.09l-2.427,0.329c-0.23,0.031-0.328,0.191-0.366,0.283s-0.081,0.275,0.061,0.459l1.933,2.255
			l-1.52,1.301l-1.966-2.297c-0.574-0.747-0.696-1.658-0.357-2.48c0.338-0.822,1.065-1.384,1.946-1.503l2.428-0.33
			c0.651-0.088,1.296,0.081,1.818,0.477l1.417,1.071c0.891,0.674,1.217,1.866,0.794,2.9l-1.459,3.563
			c-0.081,0.198-0.018,0.423,0.154,0.55l0.463,0.341c0.929,0.683,1.259,1.898,0.805,2.957l-0.437,1.019
			c-0.065,0.153-0.044,0.329,0.055,0.461l0.289,0.386c0.454,0.606,0.605,1.405,0.403,2.136l-0.352,1.265
			c-0.028,0.102-0.021,0.211,0.021,0.309l0.089,0.204c0.395,0.91,0.21,1.96-0.47,2.679l-2.933,3.091
			c-0.177,0.187-0.378,0.342-0.6,0.463l-4.081,2.254c-0.061,0.033-0.113,0.08-0.153,0.136L85.64,102.77z"/>
	</g>
	<g id="XMLID_184_">
		<path id="XMLID_695_" style="fill:#0A486A;" d="M78.125,95.767l-1.473-1.354l3.6-3.917c0.501-0.546,0.777-1.254,0.777-1.995V84
			c0-1.075,0.357-2.138,1.008-2.993l5.564-7.325c0.662-0.873,1.61-1.508,2.67-1.789l0.39-0.104l0.514,1.933l-0.39,0.104
			c-0.632,0.168-1.196,0.546-1.591,1.066l-5.565,7.325c-0.387,0.509-0.6,1.143-0.6,1.783v4.502c0,1.243-0.463,2.432-1.305,3.348
			L78.125,95.767z"/>
	</g>
	<g id="XMLID_187_">
		
			<rect id="XMLID_694_" x="88.831" y="73.712" transform="matrix(0.7606 0.6493 -0.6493 0.7606 72.4362 -39.5432)" style="fill:#0A486A;" width="2" height="9.454"/>
	</g>
	<g id="XMLID_186_">
		<path id="XMLID_667_" style="fill:#F3714E;" d="M90.967,126.001l-0.002-2c1.973-0.002,3.959-0.123,5.904-0.358l0.24,1.985
			C95.086,125.874,93.02,125.999,90.967,126.001z M84.824,125.64c-2.033-0.242-4.07-0.611-6.057-1.097l0.475-1.942
			c1.908,0.466,3.865,0.82,5.818,1.053L84.824,125.64z M103.164,124.52l-0.479-1.942c1.907-0.469,3.807-1.062,5.645-1.761
			l0.711,1.869C107.127,123.414,105.149,124.031,103.164,124.52z M72.883,122.72c-1.91-0.722-3.801-1.572-5.618-2.524l0.928-1.771
			c1.746,0.916,3.562,1.731,5.397,2.425L72.883,122.72z M114.651,120.153l-0.932-1.77c1.736-0.915,3.437-1.946,5.055-3.066
			l1.139,1.645C118.229,118.127,116.459,119.201,114.651,120.153z M61.996,117.012c-1.684-1.161-3.314-2.438-4.848-3.794
			l1.324-1.498c1.475,1.304,3.041,2.53,4.658,3.646L61.996,117.012z M124.754,113.161l-1.328-1.495
			c1.472-1.307,2.878-2.715,4.181-4.185l1.496,1.326C127.748,110.336,126.285,111.801,124.754,113.161z M52.79,108.872
			c-1.359-1.529-2.64-3.156-3.806-4.837l1.644-1.14c1.12,1.615,2.351,3.179,3.656,4.647L52.79,108.872z M132.9,103.963l-1.645-1.138
			c1.119-1.618,2.149-3.32,3.064-5.061l1.771,0.931C135.139,100.507,134.065,102.279,132.9,103.963z M45.788,98.777
			c-0.955-1.811-1.81-3.697-2.538-5.608l1.869-0.713c0.7,1.836,1.521,3.648,2.438,5.388L45.788,98.777z M138.619,93.081l-1.869-0.71
			c0.697-1.839,1.289-3.74,1.757-5.649l1.943,0.477C139.962,89.186,139.347,91.165,138.619,93.081z M41.41,87.294
			c-0.491-1.984-0.866-4.021-1.113-6.054l1.986-0.241c0.236,1.952,0.597,3.909,1.068,5.815L41.41,87.294z M141.593,81.143
			l-1.966-0.238C139.861,78.959,140,76.973,140,75l0,0h2l0,0C142,77.052,141.836,79.119,141.593,81.143z M40.495,75.068
			l-0.577-0.038c0-2.049,0.119-4.083,0.354-6.076l1.986,0.234c-0.227,1.916-0.341,3.871-0.341,5.811L40.495,75.068z M139.544,68.909
			c-0.242-1.955-0.606-3.91-1.081-5.813l1.939-0.484c0.495,1.981,0.874,4.017,1.126,6.052L139.544,68.909z M43.307,63.37
			l-1.943-0.473c0.484-1.99,1.096-3.97,1.818-5.886l1.871,0.706C44.359,59.557,43.771,61.458,43.307,63.37z M136.686,57.456
			c-0.703-1.833-1.527-3.645-2.45-5.382l1.768-0.938c0.96,1.809,1.817,3.695,2.55,5.604L136.686,57.456z M47.472,52.318L45.7,51.391
			c0.946-1.809,2.016-3.583,3.178-5.272l1.648,1.134C49.409,48.875,48.382,50.58,47.472,52.318z M131.154,47.027
			c-1.123-1.612-2.356-3.174-3.665-4.64l1.492-1.332c1.362,1.526,2.646,3.151,3.813,4.83L131.154,47.027z M54.168,42.589l-1.5-1.323
			c1.354-1.534,2.814-3.001,4.343-4.362l1.33,1.493C56.872,39.706,55.469,41.116,54.168,42.589z M123.292,38.218
			c-1.475-1.299-3.044-2.523-4.665-3.636l1.133-1.648c1.687,1.159,3.32,2.432,4.854,3.785L123.292,38.218z M62.984,34.736
			l-1.143-1.642c1.683-1.17,3.451-2.247,5.256-3.202l0.936,1.769C66.299,32.578,64.6,33.613,62.984,34.736z M113.558,31.533
			c-1.743-0.91-3.561-1.723-5.4-2.415l0.703-1.872c1.916,0.721,3.809,1.566,5.623,2.513L113.558,31.533z M73.418,29.217
			l-0.715-1.868c1.91-0.73,3.886-1.351,5.873-1.845l0.482,1.94C77.15,27.919,75.252,28.516,73.418,29.217z M102.502,27.377
			c-1.908-0.462-3.866-0.812-5.82-1.042l0.232-1.986c2.034,0.238,4.073,0.603,6.059,1.084L102.502,27.377z M84.873,26.369
			l-0.244-1.985c2.024-0.249,4.09-0.378,6.141-0.384l0.006,2C88.804,26.006,86.818,26.13,84.873,26.369z"/>
	</g>
	<g id="XMLID_188_">
		<path id="XMLID_664_" style="fill:#F3714E;" d="M28.667,57c-4.136,0-7.5-3.364-7.5-7.5s3.364-7.5,7.5-7.5
			c2.672,0,5.163,1.439,6.5,3.756v0c0.654,1.134,1,2.429,1,3.744C36.167,53.636,32.803,57,28.667,57z M28.667,44
			c-3.032,0-5.5,2.467-5.5,5.5s2.468,5.5,5.5,5.5s5.5-2.467,5.5-5.5c0-0.964-0.253-1.914-0.732-2.744l0,0
			C32.454,45.056,30.627,44,28.667,44z"/>
	</g>
	<g id="XMLID_104_">
		<polygon id="XMLID_663_" style="fill:#2887C2;" points="76.215,46.69 68.884,31.201 54.649,37.853 53.802,36.041 69.841,28.546 
			78.023,45.835 		"/>
	</g>
	<g id="XMLID_105_">
		<polygon id="XMLID_763_" style="fill:#2887C2;" points="56.855,40.01 48.683,39.225 53.449,32.54 		"/>
	</g>
	<g id="XMLID_102_">
		<polygon id="XMLID_761_" style="fill:#2887C2;" points="79.186,51.087 72.371,46.509 79.743,42.896 		"/>
	</g>
	<g id="XMLID_164_">
		<polygon id="XMLID_759_" style="fill:#2887C2;" points="48.186,101.087 41.371,96.509 48.743,92.896 		"/>
	</g>
	<g id="XMLID_166_">
		<polygon id="XMLID_757_" style="fill:#2887C2;" points="106.874,127.18 104.249,119.401 112.299,121.018 		"/>
	</g>
	<g id="XMLID_165_">
		<polygon id="XMLID_755_" style="fill:#2887C2;" points="134.087,42.085 127.527,47.022 126.531,38.872 		"/>
	</g>
</g>
</svg>
