    <svg version="1.1" id="Logos" xmlns="http://www.w3.org/2000/svg" xmlns:xlink="http://www.w3.org/1999/xlink" x="0px" y="0px"
      viewBox="0 0 80 70" style="enable-background:new 0 0 80 70;" xml:space="preserve">
    <style type="text/css">
      .st0{fill:#ddec84;}
    </style>
    <g id="Mark">
      <path class="st0" d="M67,13.4V0h-0.6C55.2,0.5,46,7.7,40.4,13.4L40,13.7l-0.3-0.3C34,7.7,24.8,0.5,13.6,0H13v13.4H0v23.1
        c0,5.6,0.2,11.2,0.6,15.8c0.8,9.2,8.1,16.4,17.3,17C25,69.7,32.5,70,40,70s15-0.3,22.1-0.8c9.2-0.6,16.5-7.8,17.3-17
        c0.4-4.6,0.6-10.2,0.6-15.8V13.4H67z M67,36.5c0,5.3-0.2,10.5-0.6,14.7c-0.3,2.7-2.5,4.9-5.2,5c-14.1,1-28.3,1-42.4,0
        c-2.7-0.1-5-2.3-5.2-5C13.2,47,13,41.7,13,36.5V13.4c9.4,0.4,18.8,10.5,21.6,14.4l5.4,7.5l5.4-7.5c2.8-4,12.2-14,21.6-14.4V36.5z"
        />
    </g>
    </svg>