<svg xmlns="http://www.w3.org/2000/svg" version="1.1" x="0" y="0" viewBox="0 0 211.8 60.2" xml:space="preserve"><style type="text/css">
	.st0{fill-rule:evenodd;clip-rule:evenodd;}
	.st1{fill-rule:evenodd;clip-rule:evenodd;fill:#FFC20E;stroke:#FFC20E;stroke-width:0.1;}
</style><path class="st0" d="M38.2 36.7h7l0.8-9.9c0.1-0.9 0.1-1.9 0.2-2.8h0.2c0.1 1 0.2 1.9 0.5 2.9l2.6 9.8h4.2l2.9-10.3c0.2-0.7 0.3-1.5 0.5-2.3h0.1l1 12.6h7L62 13.6h-7.4l-2.3 9.1c-0.2 1-0.4 2.1-0.5 3.1h-0.2l-2.8-12.1h-7.5L38.2 36.7z"/><path class="st0" d="M36.5 48.7C36.5 48.6 36.5 48.6 36.5 48.7l-0.3 2.2c0 0.1 0 0.2 0 0.3 0 0.6 0.4 1 1 1.1 0 0 0-0.1 0-0.1 0-0.1 0-0.2 0-0.3l0.3-2.1C36.9 49.7 36.5 49.2 36.5 48.7z"/><path class="st0" d="M37.5 41.3l0 0.3c0 0.1 0 0.2 0 0.3 0 0.6 0.4 1 1 1.1 0 0 0-0.1 0-0.1 0-0.1 0-0.2 0-0.3l0-0.3c0-0.7-0.4-1.3-1.1-1.5C37.5 40.9 37.5 41.1 37.5 41.3z"/><polygon class="st0" points="37.1 45.3 2.3 46.7 2.3 47.7 36.9 46.3 "/><polygon class="st0" points="36 52.9 2.3 56.7 2.3 57.7 35.8 54 "/><path class="st0" d="M65.3 40.1v6.1c-1.7-0.6-3.7-0.9-5.8-0.9 -7.8 0-12.4 5.1-21.9 4.4 0 0-0.1 0-0.1 0 0.1 0.5 0.5 1 1.1 1 9.5 0.7 14.1-4.4 21.9-4.4 2.2 0 4.2 0.3 5.8 0.9v-6.8C66 40.3 65.6 40.2 65.3 40.1z"/><path class="st0" d="M65.3 55.7c-1.7-0.6-3.7-0.9-5.8-0.9 -7.8 0-13.1 5.1-22.6 4.4 -0.2 0-0.4 0-0.5-0.1 0.2 0.6 0.8 1.1 1.5 1.1 9.5 0.7 14.8-4.4 22.6-4.4 2.2 0 4.2 0.3 5.8 0.9v-6.9c-0.3-0.1-0.6-0.2-1-0.3V55.7z"/><path class="st1" d="M65.3 46.2c-1.7-0.6-3.7-0.9-5.8-0.9 -7.8 0-12.4 5.1-21.9 4.4 -0.6 0-1.1-0.5-1.1-1.1 0-0.1 0-0.2 0-0.3l-0.4 2.5c0 0.1 0 0.2 0 0.3 0 0.6 0.5 1.1 1.1 1.1 9.5 0.7 14.5-4.4 22.2-4.4 2.2 0 4.2 0.3 5.8 0.9v6.9c-1.7-0.6-3.7-0.9-5.8-0.9 -7.8 0-13.1 5.1-22.6 4.4 -0.9 0-1.6-0.7-1.6-1.6 0-0.1 0-0.2 0-0.3l0.6-4.3L1.3 56.8v-7l35.5-2.6 0.3-1.9L1.3 46.7v-7H36c0.9 0 1.6 0.7 1.6 1.6l0 0.3c0 0.1 0 0.2 0 0.3 0 0.6 0.5 1.1 1.1 1.1 9.5 0.7 13.1-4.4 20.9-4.4 2.2 0 4.2 0.3 5.8 0.9V46.2z"/><path d="M25.7 13.6c0.2 0 0.2 0.1 0.2 0.3V15c0 0.1 0 0.2 0 0.2 0 0-0.7 0.1-0.8 0.1 -0.6 0-1.3 0.3-1.3 1.2 0 0.5 0.1 0.9 0.5 2.7l2.8 11.6c1.7-6.3 3.6-14.7 4.3-17.1 0.1-0.1 0.1-0.1 0.2-0.1 0.6 0 0.9-0.1 1 0.1l5 18.3c0 0-0.5 3.3-0.6 4.4 0 0.3-0.1 0.3-0.3 0.3h-1.5c-0.2 0-0.2-0.1-0.3-0.3 -0.5-2.6-0.7-3.5-1.6-6.5 -0.9-3.2-1.7-6.8-2.3-9.6 -0.8 3.4-1 4.2-2.8 11.2 -0.6 2.4-0.8 3.2-1.2 5 -0.1 0.2-0.1 0.2-0.3 0.2H25c-0.2 0-0.2-0.1-0.2-0.3 -0.5-2-4.2-16.4-4.3-16.9 -0.5-2-0.8-3.9-1.9-3.9 -0.7 0-0.8 0.9-0.8 2.1v9.4c0 2.2 0 5.4-2.1 7.8 -0.6 0.7-2.4 2.6-6 2.6 -1.6 0-3.7-0.5-5.3-2.1 -2-2.1-2.1-4.6-2.1-6.9V18.3c0-2.3-0.2-3-2.1-3 -0.1 0-0.1 0-0.2-0.2v-1.1c0-0.2 0-0.4 0.3-0.4 0.6 0 6.4 0 7.8 0 0.1 0 0.2 0 0.2 0.2v1.2c0 0.2-0.1 0.2-0.4 0.2 -2 0-1.9 0.8-1.9 3.2v7.4L6 28.5c0.1 1.3 0.2 2.6 0.7 3.9 0.4 0.9 1.6 2.8 4.1 2.8 1.3 0 2.6-0.6 3.6-1.7 1.4-1.7 1.6-4 1.7-6.5v-8.8c0-2.3-0.2-2.9-2.5-3 -0.2 0-0.2 0-0.2-0.2v-1.1c0-0.2 0-0.2 0.2-0.2C13.6 13.6 25.4 13.6 25.7 13.6z"/><path class="st0" d="M41.5 0.8C41.5 0.9 41.5 0.9 41.5 0.8c0.9 0.1 1 0.3 1 1.1v3.5c0 0.8 0.1 1.7 0.8 2.4 0.6 0.6 1.5 0.7 2.1 0.7 1.5 0 2.2-0.7 2.4-0.9 0.8-0.9 0.8-2 0.8-2.7V1.7c0-0.7 0.2-0.8 1-0.8 0.1 0 0.1 0 0.1-0.1V0.4c0-0.1 0-0.1-0.1-0.1 -0.5 0-0.9 0-1.4 0 -0.2 0-1 0-1.2 0 -0.1 0-0.1 0-0.1 0.1v0.4c0 0.1 0 0.1 0.1 0.1 0.9 0 1 0.2 1 1v3.1c0 0.9-0.1 1.7-0.7 2.3 -0.4 0.4-0.9 0.6-1.4 0.6 -1 0-1.5-0.7-1.6-1 -0.2-0.5-0.3-0.9-0.3-1.4l0-0.9V2c0-0.8 0-1.1 0.8-1.1 0.1 0 0.1 0 0.1-0.1V0.4c0-0.1 0-0.1-0.1-0.1 -0.6 0-1.1 0-1.7 0 -0.3 0-1.4 0-1.6 0 -0.1 0-0.1 0-0.1 0.1V0.8z"/><path class="st0" d="M58.2 1.7c0-0.7 0.2-0.8 0.9-0.8 0.1 0 0.1 0 0.1-0.1V0.4c0-0.1 0-0.1-0.1-0.1 -0.2 0-1 0-1.2 0 -0.2 0-0.8 0-1.2 0 -0.1 0-0.1 0-0.1 0.1v0.4c0 0.1 0 0.1 0.1 0.1 0.9 0 0.9 0.3 0.9 1.2l0 3.6 -4-5.2c-0.1-0.1-0.2-0.2-0.4-0.2 -0.2 0-1.1 0-1.3 0 -0.2 0-0.5 0-0.7 0 -0.1 0-0.1 0-0.1 0.1v0.3c0 0.1 0 0.1 0.1 0.1 0.5 0 0.7 0.2 1 0.4L52 6.5c0 0.8-0.1 1.2-0.9 1.3C51 7.8 51 7.8 51 8.2c0 0.1 0 0.1 0.1 0.1 0.4 0 0.8 0 1.2 0 0.4 0 0.8 0 1.2 0 0.1 0 0.1 0 0.1-0.1V7.9c0-0.1 0-0.1-0.1-0.1 -0.8 0-0.9-0.6-0.9-1.2L52.7 2l4.9 6.3c0.1 0.1 0.1 0.1 0.4 0.1 0.1 0 0.1 0 0.1-0.1V1.7z"/><path class="st0" d="M64.7 7.8C64.7 7.8 64.7 7.8 64.7 7.8c-0.5-0.1-0.7-0.1-0.9-0.3 -0.1-0.2-0.1-0.4-0.2-0.8v-5c0-0.9 0.3-0.9 0.9-0.9 0.1 0 0.1 0 0.1-0.1 0-0.4 0-0.4 0-0.4 0 0 0 0-0.1 0 -0.5 0-1.3 0-1.6 0 -0.6 0-1.2 0-1.7 0 -0.1 0-0.1 0-0.1 0.1v0.4c0 0.1 0 0.1 0.1 0.1 0.4 0 0.6 0 0.8 0.2 0.1 0.1 0.1 0.3 0.1 0.7v4.7c0 0.9 0 1.2-0.9 1.2 -0.1 0-0.1 0-0.1 0.1v0.4c0 0.1 0 0.1 0.1 0.1h0c0.5 0 1.1 0 1.6 0 0.6 0 1.1 0 1.7 0h0c0.1 0 0.1 0 0.1-0.1V7.8z"/><path class="st0" d="M68.9 1.5c0-0.1 0-0.2 0-0.3 0-0.4 0.4-0.4 0.7-0.4 0.1 0 0.1 0 0.1-0.1V0.4c0-0.1 0-0.1-0.1-0.1 -0.5 0-1.2 0-1.7 0 -0.5 0-1 0-1.5 0 -0.1 0-0.1 0-0.1 0.4 0 0.1 0 0.1 0.1 0.1 0.7 0.1 0.8 0.3 1.3 1.7 0.8 2.2 1 2.9 2 5.7 0 0.1 0.1 0.1 0.1 0.1h0.6c0.1 0 0.1 0 0.1-0.1 0.8-2.3 1-2.9 2.1-5.9C73 1.1 73.2 0.9 74 0.9c0.1 0 0.1 0 0.1-0.1V0.4c0-0.1-0.1-0.1-0.1-0.1 -0.2 0-1.1 0-1.2 0 -0.4 0-0.8 0-1.2 0 -0.1 0-0.1 0-0.1 0.1v0.3c0 0.1 0 0.1 0.1 0.1 0.3 0 0.7 0.1 0.7 0.5 0 0.2-0.1 0.5-0.2 1 -0.2 0.6-0.3 0.9-1.5 4.1L68.9 1.5z"/><path class="st0" d="M81.4 2.4C81.5 2.3 81.5 2.3 81.4 2.4c0.1-0.2-0.1-2-0.1-2 -0.1-0.1-1.1-0.1-1.3-0.1 -0.2 0-0.8 0-1.3 0 -0.5 0-1.1 0-1.3 0 -0.5 0-0.9 0-1.7 0h0c-0.1 0-0.1 0-0.1 0.1v0.4c0 0.1 0 0.1 0.2 0.1 0.7 0.1 0.7 0.2 0.8 1.2v4.8c0 0.8-0.1 0.9-0.9 0.9 -0.1 0-0.1 0-0.1 0.1v0.4c0 0.1 0 0.1 0.1 0.1 0.8 0 1.6 0 2.4 0 1.2 0 2.3 0 3.5 0 0.1 0 0.1 0 0.1-0.1 0-0.9 0.1-1.1 0.1-2.2l0 0c0 0 0-0.1-0.1-0.1 -0.1 0-0.3 0-0.4 0 0 0 0 0 0 0.1 -0.4 1.4-0.6 1.8-1.8 1.8 -1.2 0-1.4-0.5-1.4-1.4V4.3c0.6 0 1.1 0 1.3 0.7 0.1 0.2 0.1 0.4 0.1 0.6 0 0.1 0 0.1 0.1 0.1H80c0.1 0 0.1 0 0.1-0.1 0-0.5 0-1 0-1.6 0-0.3 0-1.3 0-1.6 0-0.1 0-0.1-0.1-0.1h-0.3c-0.1 0-0.1 0-0.1 0.1 -0.1 1.3-0.7 1.3-1.5 1.3v-3c0.4 0 0.7-0.1 1.1-0.1 1.2 0 1.5 0.3 1.6 1.5 0 0.1 0 0.1 0.1 0.1H81.4z"/><path class="st0" d="M84 0.8C84 0.9 84 0.9 84 0.8c1 0.1 1 0.4 1 0.8v5.3c0 0.7-0.3 0.8-0.9 0.9 -0.1 0-0.1 0-0.1 0.1v0.4c0 0.1 0 0.1 0.1 0.1 0.5 0 1.1 0 1.6 0 0.3 0 1.5 0 1.7 0 0.1 0 0.1 0 0.1-0.1V7.9c0-0.1 0-0.1-0.1-0.1 -0.7 0-0.9-0.2-0.9-0.7V4.6c0.5 0 0.6 0.2 0.9 0.6l2 2.9c0.1 0.1 0.1 0.1 0.2 0.1 0.3 0 0.6 0 0.9 0 0.4 0 0.8 0 1.2 0 0.1 0 0.1 0 0.1-0.1V7.9c0-0.1 0-0.1-0.1-0.1 -0.6 0-0.7-0.1-1.1-0.6 -0.9-1.2-1.1-1.5-2.1-2.7 1.5-0.4 1.6-1.5 1.6-2 0-0.8-0.4-1.4-0.7-1.6 -0.5-0.5-1.2-0.5-1.8-0.5 -0.3 0-1.6 0-1.8 0 -0.5 0-1.2 0-1.7 0 -0.1 0-0.1 0-0.1 0.1V0.8zM86.5 0.9c0.9 0 1.3 0 1.6 0.4 0.3 0.3 0.4 0.8 0.4 1.2 0 0.6-0.2 1.2-0.7 1.4 -0.4 0.2-0.8 0.2-1.2 0.2V0.9z"/><path class="st0" d="M93.3 5.7C93.3 5.7 93.2 5.8 93.3 5.7c-0.1 0.3-0.1 1-0.1 1.2 0 0.2 0 1.1 0 1.3 0 0.1 0 0.1 0.1 0.1 0.1 0 0.3 0 0.4 0 0 0 0 0 0-0.1l0.1-0.4c0.3 0.3 1 0.8 2.1 0.8 1.2 0 2.4-1.1 2.4-2.6 0-1.6-1.2-2.3-2.3-2.9 -0.5-0.3-1.3-0.7-1.3-1.5 0-0.5 0.4-1 1-1 0.8 0 1.4 0.8 1.5 1.7 0 0.2 0 0.2 0.1 0.2h0.3c0 0 0.1 0 0.1-0.1 0-0.2 0-0.9 0-1.1 0-0.4 0-0.7 0-1.1 0 0 0-0.1-0.1-0.1 0 0-0.3 0-0.3 0 0 0 0 0 0 0l-0.1 0.4C96.8 0.4 96.3 0 95.6 0c-1.4 0-2.1 1.2-2.1 2.4 0 1.5 1.2 2.3 2.3 2.9C96.3 5.6 97 6 97 6.7 97 7.6 96.2 8 95.6 8c-0.9 0-1.7-0.8-1.8-2.1 0-0.2-0.1-0.2-0.1-0.2H93.3z"/><path class="st0" d="M104.1 7.8C104.1 7.8 104.1 7.8 104.1 7.8c-0.5-0.1-0.7-0.1-0.9-0.3 -0.1-0.2-0.1-0.4-0.2-0.8v-5c0-0.9 0.3-0.9 0.9-0.9 0.1 0 0.1 0 0.1-0.1 0-0.4 0-0.4 0-0.4 0 0 0 0-0.1 0 -0.5 0-1.3 0-1.6 0 -0.6 0-1.2 0-1.7 0 -0.1 0-0.1 0-0.1 0.1v0.4c0 0.1 0 0.1 0.1 0.1 0.4 0 0.6 0 0.8 0.2 0.1 0.1 0.1 0.3 0.1 0.7v4.7c0 0.9 0 1.2-0.9 1.2 -0.1 0-0.1 0-0.1 0.1v0.4c0 0.1 0 0.1 0.1 0.1h0c0.5 0 1.1 0 1.6 0 0.6 0 1.1 0 1.7 0h0c0.1 0 0.1 0 0.1-0.1V7.8z"/><path class="st0" d="M112.8 1.1V0.5c0-0.1 0-0.2-0.2-0.2 -1.1 0-2.3 0-3.3 0 -1.1 0-2.3 0-3.4 0 -0.1 0-0.2 0.1-0.2 0.2v0.9c0 0.3 0 0.7 0 1 0 0.1 0 0.1 0.1 0.1h0.3c0.1 0 0.1 0 0.1-0.1 0.1-1.4 0.8-1.5 2.3-1.5v6c0 0.8-0.1 0.9-0.9 0.9 -0.1 0-0.1 0-0.1 0.1v0.4c0 0.1 0 0.1 0.1 0.1 0.5 0 1.1 0 1.6 0 0.6 0 1.1 0 1.7 0h0c0.1 0 0.1 0 0.1-0.1V7.8c0-0.1 0-0.1-0.1-0.1 -0.8-0.1-0.9-0.1-0.9-1v-6c1.6 0 2.2 0.1 2.3 1.5 0 0.1 0 0.1 0.1 0.1h0.3c0.1 0 0.1-0.1 0.1-0.1L112.8 1.1z"/><path class="st0" d="M118.8 0.8c0 0.1 0 0.1 0.1 0.1 0.4 0 0.8 0 0.8 0.4 0 0.2-0.1 0.3-0.1 0.5l-1.2 2.4 -1.1-2.4c-0.1-0.2-0.1-0.3-0.1-0.5 0-0.3 0.3-0.4 0.6-0.4 0.1 0 0.1 0 0.1-0.1V0.4c0-0.1 0-0.1-0.1-0.1 -0.5 0-1.1 0-1.6 0 -0.6 0-1.2 0-1.8 0 -0.1 0-0.1 0-0.1 0.1v0.3c0 0.1 0 0.1 0.1 0.1 0.8 0 1 0.3 1.9 2.2l1.1 2.2v1.6c0 0.7-0.2 0.8-1 0.8 -0.1 0-0.1 0-0.1 0.1v0.4c0 0.1 0 0.1 0.1 0.1h0c0.6 0 1.3 0 1.9 0 0.6 0 1.2 0 1.7 0 0.1 0 0.1 0 0.1-0.1V7.8c0 0 0-0.1-0.1-0.1 -0.8-0.1-1-0.1-1.1-0.7V4.6l1-1.9c0.8-1.4 0.9-1.7 1.4-1.8 0.1 0 0.3 0 0.4-0.1 0.1 0 0.1 0 0.1-0.1V0.4c0-0.1 0-0.1-0.1-0.1 -0.4 0-0.8 0-1.2 0 -0.4 0-0.9 0-1.3 0 -0.1 0-0.1 0-0.1 0.1V0.8z"/><path class="st0" d="M125.5 3.6c-1.2 0-2.2 0.9-2.2 2.4 0 1.5 1.1 2.4 2.2 2.4 1.2 0 2.2-0.9 2.2-2.4C127.7 4.4 126.6 3.6 125.5 3.6zM125.5 4.2c0.6-0.1 0.9 0.7 0.9 1.8 0 0.9-0.3 1.8-0.9 1.8 -0.7 0-0.9-1.1-0.9-1.8C124.6 4.4 125.3 4.2 125.5 4.2z"/><path class="st0" d="M128.9 3.7h-0.5c-0.1 0-0.1 0-0.1 0.1v0.4c0 0.1 0 0.1 0.1 0.1h0.5v2.7c0 0.6-0.1 0.8-0.7 0.9 0 0-0.1 0-0.1 0.1v0.4c0 0 0 0.1 0.1 0.1 0.5 0 0.9 0 1.4 0 0.4 0 0.8 0 1.2 0 0 0 0.1 0 0.1-0.1V7.9c0-0.1 0-0.1-0.1-0.1 -0.6 0-0.7-0.1-0.7-0.8V4.3h0.9c0 0 0 0 0.1-0.1V3.8c0-0.1 0-0.1-0.1-0.1h-0.8l0-1.6c0-0.3 0.1-0.8 0.4-0.9 0 0 0.1 0 0.2 0 0.2 0 0.3 0.2 0.4 0.4 0 0.1 0.2 0.5 0.6 0.5 0.1 0 0.4-0.1 0.4-0.5 0-0.4-0.3-0.8-1.2-0.8 -0.6 0-1.2 0.2-1.6 0.7 -0.3 0.4-0.4 1-0.4 1.3L128.9 3.7z"/><path class="st0" d="M142.5 5.5c-0.1-0.3-0.2-0.6-0.3-1l-1.4-4.4c0-0.1-0.1-0.1-0.3-0.1 -0.1 0-0.1 0-0.1 0 -0.3 0.9-0.4 1.1-0.6 2 -0.6 1.9-0.6 2-1.3 4.2l-1.2-4c-0.2-0.6-0.2-0.8-0.2-0.9 0-0.3 0.3-0.4 0.6-0.4 0 0 0.3 0 0.3 0 0 0 0 0 0-0.1V0.4c0-0.1 0-0.1-0.1-0.1 -0.3 0-1.4 0-1.6 0 -0.6 0-1.2 0-1.8 0 -0.1 0-0.1 0-0.1 0.1v0.4c0 0.1 0 0.1 0.1 0.1 0.8 0.1 1 0.6 1.3 1.5 0 0.2 1.6 5.2 1.8 5.9 0 0.1 0 0.1 0.1 0.1h0.7c0.1 0 0.1 0 0.1-0.1 0.2-0.6 0.3-0.9 0.5-1.7 0.8-2.4 0.8-2.7 1.2-3.9 0.3 1 0.7 2.2 1 3.3 0.3 1 0.4 1.4 0.7 2.3 0 0.1 0.1 0.1 0.1 0.1h0.6c0.1 0 0.1 0 0.1-0.1 0.1-0.4 0.2-0.7 0.3-1.3 0.1-0.4 1.3-4 1.5-4.7 0.4-1 0.6-1.3 1.3-1.4 0.1 0 0.1 0 0.1-0.1V0.4c0-0.1 0-0.1-0.1-0.1 -0.2 0-1.2 0-1.4 0 -0.2 0-1 0-1.2 0 -0.1 0-0.1 0-0.1 0.1v0.4c0 0.1 0 0.1 0.1 0.1 0.4 0 0.8 0 0.8 0.5 0 0.5-0.4 1.6-0.5 2.1l-0.5 1.6 -0.3 1.1L142.5 5.5z"/><path class="st0" d="M150.9 7.8C150.9 7.8 150.9 7.8 150.9 7.8c-0.5-0.1-0.7-0.1-0.9-0.3 -0.1-0.2-0.1-0.4-0.2-0.8v-5c0-0.9 0.3-0.9 0.9-0.9 0.1 0 0.1 0 0.1-0.1 0-0.4 0-0.4 0-0.4 0 0 0 0-0.1 0 -0.5 0-1.3 0-1.6 0 -0.6 0-1.2 0-1.7 0 -0.1 0-0.1 0-0.1 0.1v0.4c0 0.1 0 0.1 0.1 0.1 0.4 0 0.6 0 0.8 0.2 0.1 0.1 0.1 0.3 0.1 0.7v4.7c0 0.9 0 1.2-0.9 1.2 -0.1 0-0.1 0-0.1 0.1v0.4c0 0.1 0 0.1 0.1 0.1h0c0.5 0 1.1 0 1.6 0 0.6 0 1.1 0 1.7 0h0c0.1 0 0.1 0 0.1-0.1V7.8z"/><path class="st0" d="M153.4 5.7C153.4 5.7 153.3 5.8 153.4 5.7c-0.1 0.3-0.1 1-0.1 1.2 0 0.2 0 1.1 0 1.3 0 0.1 0 0.1 0.1 0.1 0.1 0 0.3 0 0.4 0 0 0 0 0 0-0.1l0.1-0.4c0.3 0.3 1 0.8 2.1 0.8 1.2 0 2.4-1.1 2.4-2.6 0-1.6-1.2-2.3-2.3-2.9 -0.5-0.3-1.3-0.7-1.3-1.5 0-0.5 0.4-1 1-1 0.8 0 1.4 0.8 1.5 1.7 0 0.2 0 0.2 0.1 0.2h0.3c0 0 0.1 0 0.1-0.1 0-0.2 0-0.9 0-1.1 0-0.4 0-0.7 0-1.1 0 0 0-0.1-0.1-0.1 0 0-0.3 0-0.3 0 0 0 0 0 0 0l-0.1 0.4c-0.4-0.3-0.9-0.7-1.6-0.7 -1.4 0-2.1 1.2-2.1 2.4 0 1.5 1.2 2.3 2.3 2.9 0.5 0.3 1.2 0.7 1.2 1.4 0 0.9-0.8 1.3-1.4 1.3 -0.9 0-1.7-0.8-1.8-2.1 0-0.2-0.1-0.2-0.1-0.2H153.4z"/><path class="st0" d="M166.8 8.1c0 0.1 0 0.1 0.1 0.1 0.3 0 0.4 0 0.4-0.1 0-0.5 0-1 0-1.5 0-0.4 0-0.9 0-1.3 0-0.1 0-0.1-0.4-0.1 -0.1 0-0.1 0-0.1 0.1 -0.1 0.4-0.2 1.4-0.8 2 -0.3 0.3-0.7 0.5-1.2 0.5 -1.1 0-2.4-1.2-2.4-3.7 0-2.2 0.9-3.6 2.2-3.6 0.6 0 1.9 0.4 2.2 2.4 0 0.1 0 0.1 0.1 0.1h0.3c0.1 0 0.1 0 0.1-0.1 0-0.1-0.1-0.6-0.1-0.7 -0.1-0.8-0.1-1.4-0.1-2 0-0.1 0-0.1-0.1-0.1 -0.3 0-0.3 0-0.4 0.1l-0.1 0.4C166 0.4 165.3 0 164.2 0c-0.2 0-0.8 0-1.6 0.4 -1.2 0.7-2 2.1-2 3.9 0 1 0.2 2.2 1.1 3.2 1 1 2 1.1 2.5 1.1 1 0 1.6-0.3 2.5-0.9L166.8 8.1z"/><path class="st0" d="M173.7 0c-1.9 0-3.9 1.6-3.9 4.3 0 2.3 1.5 4.3 4 4.3 2.1 0 4-1.7 4-4.3C177.8 1.9 176.2 0 173.7 0zM173.8 0.7c0.8 0 1.3 0.6 1.5 0.9 0.4 0.6 0.7 1.6 0.7 2.6 0 2.8-1.2 3.7-2.2 3.7 -1.4 0-2.2-1.7-2.2-3.6C171.6 2 172.6 0.7 173.8 0.7z"/><path class="st0" d="M186.9 1.7c0-0.7 0.2-0.8 0.9-0.8 0.1 0 0.1 0 0.1-0.1V0.4c0-0.1 0-0.1-0.1-0.1 -0.2 0-1 0-1.2 0 -0.2 0-0.8 0-1.2 0 -0.1 0-0.1 0-0.1 0.1v0.4c0 0.1 0 0.1 0.1 0.1 0.9 0 0.9 0.3 0.9 1.2l0 3.6 -4-5.2c-0.1-0.1-0.2-0.2-0.4-0.2 -0.2 0-1.1 0-1.3 0 -0.2 0-0.5 0-0.7 0 -0.1 0-0.1 0-0.1 0.1v0.3c0 0.1 0 0.1 0.1 0.1 0.5 0 0.7 0.2 1 0.4l-0.1 5.2c0 0.8-0.1 1.2-0.9 1.3 -0.1 0-0.1 0.1-0.1 0.5 0 0.1 0 0.1 0.1 0.1 0.4 0 0.8 0 1.2 0 0.4 0 0.8 0 1.2 0 0.1 0 0.1 0 0.1-0.1V7.9c0-0.1 0-0.1-0.1-0.1 -0.8 0-0.9-0.6-0.9-1.2l0.1-4.5 4.9 6.3c0.1 0.1 0.1 0.1 0.4 0.1 0.1 0 0.1 0 0.1-0.1V1.7z"/><path class="st0" d="M190.4 5.7C190.4 5.7 190.3 5.8 190.4 5.7c-0.1 0.3-0.1 1-0.1 1.2 0 0.2 0 1.1 0 1.3 0 0.1 0 0.1 0.1 0.1 0.1 0 0.3 0 0.4 0 0 0 0 0 0-0.1l0.1-0.4c0.3 0.3 1 0.8 2.1 0.8 1.2 0 2.4-1.1 2.4-2.6 0-1.6-1.2-2.3-2.3-2.9 -0.5-0.3-1.3-0.7-1.3-1.5 0-0.5 0.4-1 1-1 0.8 0 1.4 0.8 1.5 1.7 0 0.2 0 0.2 0.1 0.2h0.3c0 0 0.1 0 0.1-0.1 0-0.2 0-0.9 0-1.1 0-0.4 0-0.7 0-1.1 0 0 0-0.1-0.1-0.1 0 0-0.3 0-0.3 0 0 0 0 0 0 0l-0.1 0.4c-0.4-0.3-0.9-0.7-1.6-0.7 -1.4 0-2.1 1.2-2.1 2.4 0 1.5 1.2 2.3 2.3 2.9 0.5 0.3 1.2 0.7 1.2 1.4 0 0.9-0.8 1.3-1.4 1.3 -0.9 0-1.7-0.8-1.8-2.1 0-0.2-0.1-0.2-0.1-0.2H190.4z"/><path class="st0" d="M201.2 7.8C201.2 7.8 201.2 7.8 201.2 7.8c-0.5-0.1-0.7-0.1-0.9-0.3 -0.1-0.2-0.1-0.4-0.2-0.8v-5c0-0.9 0.3-0.9 0.9-0.9 0.1 0 0.1 0 0.1-0.1 0-0.4 0-0.4 0-0.4 0 0 0 0-0.1 0 -0.5 0-1.3 0-1.6 0 -0.6 0-1.2 0-1.7 0 -0.1 0-0.1 0-0.1 0.1v0.4c0 0.1 0 0.1 0.1 0.1 0.4 0 0.6 0 0.8 0.2 0.1 0.1 0.1 0.3 0.1 0.7v4.7c0 0.9 0 1.2-0.9 1.2 -0.1 0-0.1 0-0.1 0.1v0.4c0 0.1 0 0.1 0.1 0.1h0c0.5 0 1.1 0 1.6 0 0.6 0 1.1 0 1.7 0h0c0.1 0 0.1 0 0.1-0.1V7.8z"/><path class="st0" d="M210.5 1.7c0-0.7 0.2-0.8 0.9-0.8 0.1 0 0.1 0 0.1-0.1V0.4c0-0.1 0-0.1-0.1-0.1 -0.2 0-1 0-1.2 0 -0.2 0-0.8 0-1.2 0 -0.1 0-0.1 0-0.1 0.1v0.4c0 0.1 0 0.1 0.1 0.1 0.9 0 0.9 0.3 0.9 1.2l0 3.6 -4-5.2c-0.1-0.1-0.2-0.2-0.4-0.2 -0.2 0-1.1 0-1.3 0 -0.2 0-0.5 0-0.7 0 -0.1 0-0.1 0-0.1 0.1v0.3c0 0.1 0 0.1 0.1 0.1 0.5 0 0.7 0.2 1 0.4l-0.1 5.2c0 0.8-0.1 1.2-0.9 1.3 -0.1 0-0.1 0.1-0.1 0.5 0 0.1 0 0.1 0.1 0.1 0.4 0 0.8 0 1.2 0 0.4 0 0.8 0 1.2 0 0.1 0 0.1 0 0.1-0.1V7.9c0-0.1 0-0.1-0.1-0.1 -0.8 0-0.9-0.6-0.9-1.2L205 2l4.9 6.3c0.1 0.1 0.1 0.1 0.4 0.1 0.1 0 0.1 0 0.1-0.1V1.7z"/><rect x="67.2" y="16.1" class="st0" width="7.5" height="20.6"/><polygon class="st0" points="77 36.7 90.8 36.7 90.8 30.1 84.5 30.1 84.5 16.1 77 16.1 "/><path class="st0" d="M88.1 16.1l7.2 20.6h6.4l2.1-8.1c0.2-1 0.3-2 0.4-3.1h0.2l2.3 11.2h6.5l7.3-20.6h-7.8l-2.1 8.7c-0.3 1.2-0.4 2.4-0.5 3.6H110l-2.8-12.3h-5.7l-2.2 8.5c-0.3 1.2-0.5 2.5-0.6 3.8h-0.2l-2.6-12.3H88.1z"/><path class="st0" d="M125 34.1h5.7l0.7 2.6h7.9l-7.3-20.6h-8.3l-7.2 20.6h7.9L125 34.1zM126.3 29.3l1.4-6.3h0.3c0.1 0.9 0.3 1.8 0.5 2.6l0.9 3.6H126.3z"/><path class="st0" d="M150.3 16.1v11.5c0 1.6-0.1 3-2 3 -2 0-2-1.4-2-3V16.1h-7.5v12.2c0 6 3.8 8.7 9.5 8.7 5.8 0 9.5-2.7 9.5-8.7V16.1H150.3z"/><path class="st0" d="M160.1 36.7h7.3l-0.2-8.6h0.2c0.2 0.8 0.8 1.6 1.3 2.4l3.5 6.2h8.7l-7.1-10.6 6.4-10H172l-3.6 6.6c-0.4 0.7-0.9 1.5-1 2.3h-0.2l0.2-8.9h-7.3V36.7z"/><polygon class="st0" points="181.8 36.7 195.8 36.7 195.8 31.1 189.3 31.1 189.3 29.1 195.1 29.1 195.1 23.7 189.3 23.7 189.3 21.8 195.6 21.8 195.6 16.1 181.8 16.1 "/><polygon class="st0" points="197.7 36.7 211.8 36.7 211.8 31.1 205.2 31.1 205.2 29.1 211 29.1 211 23.7 205.2 23.7 205.2 21.8 211.5 21.8 211.5 16.1 197.7 16.1 "/></svg>